<?xml version="1.0" encoding="utf-8"?>
<!-- Generator: Adobe Illustrator 17.0.0, SVG Export Plug-In . SVG Version: 6.00 Build 0)  -->
<!DOCTYPE svg PUBLIC "-//W3C//DTD SVG 1.1//EN" "http://www.w3.org/Graphics/SVG/1.1/DTD/svg11.dtd">
<svg version="1.1" id="Livello_1" xmlns="http://www.w3.org/2000/svg" xmlns:xlink="http://www.w3.org/1999/xlink" x="0px" y="0px"
	 width="150px" height="150px" viewBox="0 0 150 150" enable-background="new 0 0 150 150" xml:space="preserve">
<g>
	<circle fill="#F6C447" cx="75" cy="75" r="64.292"/>
	<circle fill="none" stroke="#F6C447" stroke-width="3" stroke-miterlimit="10" cx="75" cy="75" r="72"/>
	<path fill="#ED9F21" d="M45.926,107.077l30.645,30.645l1.528,1.528c0,0,28.402-1.174,47.113-24.1L89.419,78.497"/>
	<path fill="#ED9F21" d="M85.349,71.132l19.891,19.891l21.82,21.7c0,0,12.232-15.675,12.232-37.724l-21.994-23.687"/>
	<path fill="#FFFFFF" d="M73.391,55.763c1.233,0.719,2.502,1.384,3.691,2.17c1.872,1.236,2.195,2.936,1.208,4.891
		c-0.497,0.984-1.163,1.886-1.631,2.882c-2.322,4.941,0.753,10.775,6.118,11.617c0.868,0.136,1.76,0.128,2.641,0.164
		c1.645,0.067,3.849-0.241,4.266,1.668c0.47,2.145,0.367,4.608-0.258,6.702c-0.24,0.803-2.599,1.308-4.012,1.356
		c-3.006,0.103-5.669,0.597-7.624,3.173c-2.237,2.948-2.558,6.008-0.861,9.282c0.254,0.489,0.594,0.932,0.867,1.412
		c1.7,2.98,1.326,4.547-1.537,6.311c-0.933,0.575-1.911,1.078-2.868,1.614c-0.666,0-1.331,0-1.997,0
		c-0.976-1.451-1.998-2.874-2.92-4.359c-3.421-5.507-10.776-5.546-14.206-0.062c-0.929,1.485-1.893,2.947-2.84,4.42
		c-0.887,0-1.775,0-2.662,0c-0.208-0.233-0.37-0.561-0.63-0.686c-5.409-2.608-5.188-4.635-2.489-8.665
		c2.113-3.155,1.344-6.286-0.727-9.218c-1.863-2.639-4.59-3.274-7.569-3.146c-2.391,0.103-4.348-0.384-5.224-2.91
		c0-1.331,0-2.662,0-3.993c0.909-2.186,2.499-3.153,4.895-2.916c0.97,0.096,1.984-0.026,2.955-0.186
		c5.169-0.855,8.225-6.511,6.139-11.307c-2.737-6.295-2.737-6.295,2.649-10.217c0.887,0,1.775,0,2.662,0
		c0.943,1.476,1.89,2.949,2.827,4.429c3.477,5.489,10.792,5.444,14.218-0.069c0.923-1.485,1.945-2.908,2.921-4.36
		C72.06,55.763,72.726,55.763,73.391,55.763z M73.197,82.507c0.098-6.367-5.308-11.906-11.749-12.037
		c-6.299-0.129-11.899,5.385-11.976,11.791c-0.077,6.396,5.333,11.948,11.73,12.039C67.557,94.391,73.097,88.943,73.197,82.507z"/>
	<path fill="#F6C447" d="M105.121,112.724"/>
	<path fill="#FFFFFF" d="M117.873,68.115c-0.367,0.547-0.729,1.098-1.101,1.641c-1.354,1.977-1.911,2.114-3.992,0.992
		c-4.941-2.663-8.76-0.519-9.021,5.065c-0.115,2.455-0.78,3.162-3.037,3.229c-2.385,0.071-3.191-0.624-3.219-3.265
		c-0.028-2.667-0.941-4.672-3.426-5.828c-1.727-0.803-3.317-0.48-4.949,0.397c-2.946,1.584-3.549,1.432-4.894-0.874
		c-1.258-2.156-1.075-3.029,1.83-4.691c2.524-1.444,3.663-4.832,2.024-7.491c-0.617-1.001-1.773-1.712-2.777-2.423
		c-1.973-1.396-2.238-2.298-1.073-4.287c1.33-2.27,1.986-2.447,4.384-1.184c4.691,2.47,8.504,0.384,8.831-4.83
		c0.183-2.919,0.833-3.633,3.25-3.57c2.306,0.061,2.904,0.749,3.069,3.53c0.208,3.525,1.423,5.311,4.433,5.8
		c1.212,0.197,2.667-0.129,3.808-0.657c3.364-1.556,3.321-1.64,5.288,1.642c0.141,0.235,0.38,0.41,0.574,0.613
		c0,0.578,0,1.156,0,1.735c-1.059,0.62-2.172,1.164-3.168,1.873c-3.146,2.238-3.145,6.72,0.004,8.977
		c0.992,0.711,2.106,1.252,3.165,1.87C117.873,66.959,117.873,67.537,117.873,68.115z M108.241,59.967
		c-0.04-4.371-3.359-7.666-7.712-7.655c-4.273,0.011-7.652,3.448-7.632,7.765c0.019,4.299,3.459,7.699,7.741,7.652
		C104.987,67.681,108.281,64.319,108.241,59.967z"/>
	<circle fill="#ED9F21" cx="100.682" cy="60.117" r="7.777"/>
	<circle fill="#ED9F21" cx="61.601" cy="82.228" r="11.931"/>
</g>
<g>
</g>
<g>
</g>
<g>
</g>
<g>
</g>
<g>
</g>
<g>
</g>
<g>
</g>
<g>
</g>
<g>
</g>
<g>
</g>
<g>
</g>
<g>
</g>
<g>
</g>
<g>
</g>
<g>
</g>
</svg>
