<?xml version="1.0" encoding="utf-8"?>
<!-- Generator: Adobe Illustrator 17.0.0, SVG Export Plug-In . SVG Version: 6.00 Build 0)  -->
<!DOCTYPE svg PUBLIC "-//W3C//DTD SVG 1.1//EN" "http://www.w3.org/Graphics/SVG/1.1/DTD/svg11.dtd">
<svg version="1.1" id="Livello_1" xmlns="http://www.w3.org/2000/svg" xmlns:xlink="http://www.w3.org/1999/xlink" x="0px" y="0px"
	 width="150px" height="150px" viewBox="0 0 150 150" enable-background="new 0 0 150 150" xml:space="preserve">
<circle fill="#F2707C" cx="75" cy="75.239" r="65.137"/>
<circle fill="none" stroke="#F2707C" stroke-width="3" stroke-miterlimit="10" cx="75" cy="75.239" r="72.906"/>
<path fill="#ED4357" d="M115.528,73.506l20.941,23.333c0,0-11.357,34.799-48.967,42.305l-44.242-48.95"/>
<path fill="#F2707C" d="M64.899,83.95c0,0,7.253,3.352,15.301,1.491c5.904-1.365,7.978-2.371,18.8-8.374l-9.157-2.92L64.899,83.95z"
	/>
<path fill="#ED4357" d="M111.263,73.053"/>
<path fill="#ED4357" d="M111.152,73.053"/>
<polygon fill="#ED4357" points="51.306,65.716 99,60.32 108.128,76.192 89.864,90.794 51.306,92.54 41.307,75.239 "/>
<path fill="#FFFFFF" d="M115.528,73.146c0,0.12,0,0.24,0,0.36c-1.32,2.936-2.552,5.915-3.977,8.799
	c-3.522,7.128-8.217,13.279-15.43,17.024c-8.612,4.471-17.8,5.626-27.392,4.511c-13.542-1.574-23.556-8.18-29.699-20.42
	c-1.631-3.249-3.045-6.607-4.559-9.914c0-0.12,0-0.24,0-0.36c2.97-3.289,5.872-6.642,8.926-9.852
	c3.694-3.882,7.684-7.439,12.561-9.811c2.708-1.317,5.523-2.362,8.62-2.085c4.088,0.366,7.688,1.789,10.374,5.05
	c4.931-5.412,12.356-6.807,19.05-2.903c3.797,2.214,7.412,4.908,10.633,7.9C108.53,65.063,111.92,69.222,115.528,73.146z
	 M46.267,74.34c4.053,2.191,8.343,4.562,12.68,6.843c5.29,2.783,10.771,5.031,16.895,4.891c6.04-0.138,11.402-2.525,16.604-5.324
	c3.999-2.153,7.965-4.368,11.557-6.341c-3.429-1.424-7.284-2.98-11.102-4.62c-4.333-1.861-8.625-2.129-12.722,0.473
	c-3.775,2.397-7.321,2.417-10.967-0.253c-2.538-1.858-5.521-2.211-8.413-1.21C55.795,70.53,50.894,72.559,46.267,74.34z"/>
<g>
</g>
<g>
</g>
<g>
</g>
<g>
</g>
<g>
</g>
<g>
</g>
<g>
</g>
<g>
</g>
<g>
</g>
<g>
</g>
<g>
</g>
<g>
</g>
<g>
</g>
<g>
</g>
<g>
</g>
</svg>
