<?xml version="1.0" encoding="utf-8"?>
<!-- Generator: Adobe Illustrator 17.0.0, SVG Export Plug-In . SVG Version: 6.00 Build 0)  -->
<!DOCTYPE svg PUBLIC "-//W3C//DTD SVG 1.1//EN" "http://www.w3.org/Graphics/SVG/1.1/DTD/svg11.dtd">
<svg version="1.1" id="Livello_1" xmlns="http://www.w3.org/2000/svg" xmlns:xlink="http://www.w3.org/1999/xlink" x="0px" y="0px"
	 width="50.978px" height="39.227px" viewBox="0 0 50.978 39.227" enable-background="new 0 0 50.978 39.227" xml:space="preserve">
<path fill="#FFFFFF" d="M23.049,25.345l21.32,0.896l3.922-10.63c0,0,0.282-2.084,1.906-1.522c0.968,0.335,0.762,1.522,0.762,1.522
	l-3.236,12.693c0,0-0.569,1.849-3.058,1.991l-20.239,0.643c0,0-3.97,0.287-5.749-3.767l-7.79-19.104c0,0-1.496-1.549-3.06-1.762
	C6.263,6.092,2.171,5.378,2.171,5.378S0,5.118,0,2.558c0,0,0.142-2.347,2.703-2.347l9.175,1.067c0,0,1.778,0.498,2.703,2.845
	C15.505,6.47,23.049,25.345,23.049,25.345z"/>
<circle fill="#FFFFFF" cx="24.99" cy="35.995" r="3.232"/>
<circle fill="#FFFFFF" cx="42.442" cy="35.995" r="3.232"/>
<path fill="none" stroke="#FFFFFF" stroke-miterlimit="10" d="M19.257,6.219"/>
<polygon fill="#FF5700" points="18.053,8.005 24.421,23.21 42.442,24.38 46.255,13.723 "/>
<g>
	<g>
		<g>
			<circle fill="none" stroke="#FF5700" stroke-miterlimit="10" cx="32.523" cy="12.107" r="9.391"/>
		</g>
		<g>
			
				<ellipse transform="matrix(-0.987 0.1607 -0.1607 -0.987 66.4653 18.8563)" fill="none" stroke="#FF5700" stroke-miterlimit="10" cx="32.47" cy="12.115" rx="5.144" ry="9.391"/>
		</g>
		<g>
			<line fill="none" stroke="#FF5700" stroke-miterlimit="10" x1="30.961" y1="2.846" x2="33.979" y2="21.385"/>
		</g>
		<g>
			<line fill="none" stroke="#FF5700" stroke-miterlimit="10" x1="39.505" y1="5.825" x2="23.908" y2="8.364"/>
		</g>
		<g>
			<line fill="none" stroke="#FF5700" stroke-miterlimit="10" x1="25.529" y1="18.32" x2="41.126" y2="15.781"/>
		</g>
		<g>
			<line fill="none" stroke="#FF5700" stroke-miterlimit="10" x1="23.253" y1="13.616" x2="41.792" y2="10.598"/>
		</g>
	</g>
</g>
<g>
</g>
<g>
</g>
<g>
</g>
<g>
</g>
<g>
</g>
<g>
</g>
</svg>
