<?xml version="1.0" encoding="utf-8"?>
<!-- Generator: Adobe Illustrator 17.0.0, SVG Export Plug-In . SVG Version: 6.00 Build 0)  -->
<!DOCTYPE svg PUBLIC "-//W3C//DTD SVG 1.1//EN" "http://www.w3.org/Graphics/SVG/1.1/DTD/svg11.dtd">
<svg version="1.1" id="Livello_1" xmlns="http://www.w3.org/2000/svg" xmlns:xlink="http://www.w3.org/1999/xlink" x="0px" y="0px"
	 width="150px" height="150px" viewBox="0 0 150 150" enable-background="new 0 0 150 150" xml:space="preserve">
<circle fill="#FA911B" cx="75" cy="75" r="65.104"/>
<circle fill="none" stroke="#FA911B" stroke-width="3" stroke-miterlimit="10" cx="75" cy="75" r="72.583"/>
<path fill="#D86C00" d="M121.411,70.205l17.522,17.522c0,0-7.301,47.846-60.922,52.376l-22.005-24.329"/>
<path fill="#FFFFFF" d="M99.158,66.153c5.967,0.988,11.927,2.114,17.937,2.708c3.996,0.395,5.683,1.354,5.386,5.396
	c-0.362,4.92-1.28,9.801-2.046,14.686c-0.095,0.604-0.642,1.225-1.133,1.667c-6.197,5.571-12.626,10.953-20.11,14.614
	c-4.645,2.272-7.612,5.598-9.96,9.9c-1.438,2.635-2.551,3.023-5.46,2.305c-1.994-0.492-3.459-1.719-3.967-3.656
	c-0.431-1.641-1.35-1.789-2.739-1.73c-1.811,0.077-3.74,0.344-5.423-0.145c-3.47-1.009-5.638,0.06-7.172,3.198
	c-0.46,0.942-1.293,2.017-2.208,2.363c-2.992,1.132-6.647-0.778-7.509-3.937c-0.544-1.994-0.507-4.139-0.918-6.179
	c-0.214-1.061-0.684-2.143-1.297-3.037c-1.528-2.228-3.606-4.168-4.717-6.568c-1.349-2.915-1.932-6.184-2.887-9.438
	c-0.665-0.145-1.632-0.29-2.559-0.568c-4.63-1.389-6.776-5.506-5.137-9.793c1.491-3.9,6.897-5.932,10.771-4.048
	c2.347,1.142,3.449,3.355,2.724,5.471c-0.726,2.117-2.989,3.263-5.494,2.5c-0.697-0.212-1.14-1.256-1.699-1.919
	c0.655-0.5,1.258-1.104,1.983-1.463c0.496-0.246,1.161-0.149,2.077-0.237c-2.083-1.881-4.788-1.781-6.306-0.111
	c-1.479,1.626-1.354,4.047,0.281,5.425c2.225,1.877,6.986,1.615,9.604-0.529c2.464-2.018,3.059-5.159,1.433-8.12
	c-0.524-0.954-1.294-1.774-1.946-2.647c5.656-8.241,21.675-11.539,28.711-9.522c-0.189,1.265-0.38,2.551-0.593,3.977
	c0.747,0.194,1.386,0.359,2.246,0.582c0.498-2.117,0.898-4.086,1.427-6.02c1.657-6.053,7.09-10.736,12.458-10.801
	c3.638-0.044,4.684,1.703,2.941,4.913c-1.595,2.939-3.19,5.878-5.033,9.275C95.12,65.214,97.117,65.815,99.158,66.153z
	 M94.982,70.996c-0.178,1.432,2.19,3.533,3.863,3.39c0.524-0.045,1.345-0.759,1.411-1.249c0.204-1.527-2.075-3.47-4.332-3.414
	C95.734,69.964,95.051,70.442,94.982,70.996z"/>
<path fill="#FFFFFF" d="M61.321,62.594c-8.153,0.068-15.216-6.825-15.309-14.942c-0.095-8.292,6.76-15.335,15.024-15.437
	c8.301-0.102,15.343,6.792,15.362,15.041C76.418,55.65,69.66,62.525,61.321,62.594z M61.475,59.288
	c6.458-0.133,11.777-5.68,11.614-12.114c-0.167-6.589-5.485-11.655-12.103-11.53c-6.621,0.125-11.733,5.433-11.58,12.022
	C49.557,54.199,54.98,59.421,61.475,59.288z"/>
<circle fill="#FFFFFF" cx="61.205" cy="47.404" r="8.546"/>
<g>
</g>
<g>
</g>
<g>
</g>
<g>
</g>
<g>
</g>
<g>
</g>
<g>
</g>
<g>
</g>
<g>
</g>
<g>
</g>
<g>
</g>
<g>
</g>
<g>
</g>
<g>
</g>
<g>
</g>
</svg>
