<?xml version="1.0" encoding="utf-8"?>
<!-- Generator: Adobe Illustrator 17.0.0, SVG Export Plug-In . SVG Version: 6.00 Build 0)  -->
<!DOCTYPE svg PUBLIC "-//W3C//DTD SVG 1.1//EN" "http://www.w3.org/Graphics/SVG/1.1/DTD/svg11.dtd">
<svg version="1.1" id="Livello_1" xmlns="http://www.w3.org/2000/svg" xmlns:xlink="http://www.w3.org/1999/xlink" x="0px" y="0px"
	 width="150px" height="150px" viewBox="0 0 150 150" enable-background="new 0 0 150 150" xml:space="preserve">
<circle fill="#68D8C8" cx="74.143" cy="75" r="64.581"/>
<circle fill="none" stroke="#68D8C8" stroke-width="3" stroke-miterlimit="10" cx="74.142" cy="75" r="72"/>
<path fill="#20C9AD" d="M97.167,49.398L137.134,89.3c0,0-6.652,40.069-50.837,49.135l-39.035-38.269"/>
<circle fill="#20C9AD" cx="74.14" cy="78.289" r="32.236"/>
<circle fill="none" stroke="#FFFFFF" stroke-width="6" stroke-miterlimit="10" cx="74.14" cy="76.697" r="32.673"/>
<path fill="none" stroke="#FFFFFF" stroke-width="6" stroke-miterlimit="10" d="M41.467,76.697c0,0,31.435-14.604,65.346,0"/>
<path fill="none" stroke="#FFFFFF" stroke-width="6" stroke-miterlimit="10" d="M104.69,75.822c0,0-32.068,0-10.868,26.955
	c0,0-18.385-19.711-38.587,0"/>
<path fill="none" stroke="#FFFFFF" stroke-width="6" stroke-miterlimit="10" d="M56.432,101.658c0,0,17.709-22.981-11.829-25.835"/>
<path fill="#FFFFFF" d="M48.151,73.452l7.084,6.463l6.777,8.825l-2.063,6.806l9.205-0.943c0,0,5.473-0.628,6.488-0.539
	c1.015,0.089,5.797,1.049,6.908,1.483c1.111,0.433,3.152,1.226,4.884,2.319c1.731,1.093,0-8.565,0-8.565l2.899-7.549
	c0,0,3.974-2.829,4.68-3.151c0.705-0.322,5.281-1.903,5.281-1.903L86.58,71.03l-20.127-0.425L48.151,73.452z"/>
<g>
</g>
<g>
</g>
<g>
</g>
<g>
</g>
<g>
</g>
<g>
</g>
<g>
</g>
<g>
</g>
<g>
</g>
<g>
</g>
<g>
</g>
<g>
</g>
<g>
</g>
<g>
</g>
<g>
</g>
</svg>
