<?xml version="1.0" encoding="utf-8"?>
<!-- Generator: Adobe Illustrator 17.0.0, SVG Export Plug-In . SVG Version: 6.00 Build 0)  -->
<!DOCTYPE svg PUBLIC "-//W3C//DTD SVG 1.1//EN" "http://www.w3.org/Graphics/SVG/1.1/DTD/svg11.dtd">
<svg version="1.1" id="Livello_1" xmlns="http://www.w3.org/2000/svg" xmlns:xlink="http://www.w3.org/1999/xlink" x="0px" y="0px"
	 width="141.507px" height="58.42px" viewBox="0 0 141.507 58.42" enable-background="new 0 0 141.507 58.42" xml:space="preserve">
<g>
	<path fill="#FFFFFF" d="M0.233,55.293l2.818-1.008c0.362,0.982,1.421,1.111,1.913,1.111H5.17c0.776-0.052,1.654-0.439,1.81-1.163
		c0.026-0.077,0.026-0.181,0.026-0.259c0-0.232-0.078-0.439-0.232-0.62c-0.388-0.465-1.138-0.775-2.042-0.801
		c-3.102-0.078-4.239-2.327-4.239-3.801c0-1.551,1.137-3.825,4.265-3.825c1.939,0,3.412,1.292,3.567,1.447l-1.706,2.404
		c-0.207-0.181-1.215-0.853-1.861-0.853c-0.284,0-1.189,0-1.241,0.801c0.052,0.543,0.465,0.802,1.292,0.827
		c1.81,0.052,3.386,0.75,4.317,1.939c0.568,0.75,0.879,1.629,0.879,2.533c0,0.259-0.026,0.543-0.078,0.802
		c-0.414,1.99-2.223,3.412-4.523,3.567c-0.155,0.025-0.31,0.025-0.465,0.025C2.74,58.421,0.931,57.231,0.233,55.293z"/>
	<path fill="#FFFFFF" d="M23.111,44.85v13.571h-3.024v-2.456h-5.454v2.456h-3.024V44.85h3.024v8.117h5.454V44.85H23.111z"/>
	<path fill="#FFFFFF" d="M24.845,51.623c0-3.723,3.05-6.773,6.772-6.773c3.748,0,6.798,3.05,6.798,6.773
		c0,3.748-3.05,6.798-6.798,6.798C27.896,58.421,24.845,55.371,24.845,51.623z M27.87,51.623c0,2.094,1.68,3.773,3.748,3.773
		c2.094,0,3.774-1.68,3.774-3.773c0-2.069-1.68-3.749-3.774-3.749C29.55,47.874,27.87,49.554,27.87,51.623z"/>
	<path fill="#FFFFFF" d="M43.201,58.421h-3.024V44.85h5.532c0.129,0,1.396,0.026,2.688,0.672c1.835,0.905,2.843,2.637,2.843,4.859
		c0,2.224-1.008,3.956-2.843,4.86c-1.293,0.646-2.559,0.673-2.688,0.673h-2.507V58.421z M43.201,52.89h2.481
		c0.052,0,0.775-0.026,1.421-0.388c0.491-0.233,1.112-0.75,1.112-2.121c0-1.396-0.621-1.887-1.112-2.145
		c-0.646-0.336-1.37-0.362-1.421-0.362h-2.481V52.89z"/>
	<path fill="#FFFFFF" d="M55.739,58.421h-3.024V44.85h3.024V58.421z"/>
	<path fill="#FFFFFF" d="M57.809,58.421V45.108h4.833c0.155,0,1.654,0.026,3.18,0.801c2.119,1.112,3.283,3.18,3.283,5.842
		c0,2.688-1.164,4.756-3.283,5.867c-1.525,0.776-3.024,0.802-3.18,0.802H57.809z M60.833,55.396h1.783
		c0.052,0,1.008-0.025,1.887-0.517c1.086-0.569,1.603-1.603,1.603-3.128c0-1.5-0.517-2.534-1.603-3.128
		c-0.879-0.465-1.835-0.517-1.887-0.517h-1.783V55.396z"/>
	<path fill="#FFFFFF" d="M70.863,44.85h8.814v3.024h-5.79v2.791h4.704v3h-4.704v1.731h5.79v3.024h-8.814V44.85z"/>
	<path fill="#FFFFFF" d="M81.8,58.421V44.85h5.558c0.155,0,1.422,0.026,2.714,0.672c1.836,0.905,2.844,2.663,2.844,4.885
		c0,1.965-0.775,3.542-2.224,4.524l2.456,3.489h-3.696l-1.731-2.456h-2.896v2.456H81.8z M84.824,52.967h2.533
		c0.052,0,0.775-0.025,1.422-0.388c0.491-0.259,1.137-0.775,1.137-2.172c0-1.085-0.388-1.783-1.215-2.197
		c-0.646-0.336-1.344-0.336-1.344-0.336h-2.533V52.967z"/>
	<path fill="#FFFFFF" d="M95.89,58.421c-0.827,0-1.499-0.672-1.499-1.499c0-0.854,0.672-1.525,1.499-1.525
		c0.854,0,1.525,0.672,1.525,1.525C97.415,57.749,96.743,58.421,95.89,58.421z"/>
	<path fill="#FFFFFF" d="M98.785,51.623c0-3.723,3.05-6.773,6.772-6.773c1.835,0,3.566,0.724,4.833,2.016l-2.146,2.12
		c-0.697-0.724-1.654-1.111-2.688-1.111c-2.068,0-3.748,1.68-3.748,3.749c0,2.094,1.68,3.773,3.748,3.773
		c1.008,0,1.938-0.388,2.662-1.086l2.119,2.146c-1.292,1.267-2.973,1.965-4.781,1.965C101.835,58.421,98.785,55.371,98.785,51.623z"
		/>
	<path fill="#FFFFFF" d="M111.815,51.623c0-3.723,3.05-6.773,6.771-6.773c3.748,0,6.799,3.05,6.799,6.773
		c0,3.748-3.051,6.798-6.799,6.798C114.865,58.421,111.815,55.371,111.815,51.623z M114.839,51.623c0,2.094,1.681,3.773,3.748,3.773
		c2.094,0,3.774-1.68,3.774-3.773c0-2.069-1.681-3.749-3.774-3.749C116.52,47.874,114.839,49.554,114.839,51.623z"/>
	<path fill="#FFFFFF" d="M141.259,58.421h-3.024v-7.807l-4.239,6.049l-4.238-6.049v7.807h-3.024V44.85h2.637l4.626,6.566
		l4.627-6.566h2.637V58.421z"/>
</g>
<path fill="#FFFFFF" d="M61.245,25.135l21.32,0.896l3.922-10.63c0,0,0.282-2.084,1.906-1.522c0.968,0.335,0.762,1.522,0.762,1.522
	L85.92,28.094c0,0-0.569,1.849-3.058,1.991l-20.239,0.642c0,0-3.97,0.287-5.749-3.767l-7.79-19.104c0,0-1.496-1.549-3.06-1.762
	c-1.565-0.213-5.657-0.927-5.657-0.927s-2.171-0.26-2.171-2.82c0,0,0.142-2.347,2.703-2.347l9.175,1.067
	c0,0,1.778,0.498,2.703,2.845S61.245,25.135,61.245,25.135z"/>
<circle fill="#FFFFFF" cx="63.186" cy="35.784" r="3.232"/>
<circle fill="#FFFFFF" cx="80.638" cy="35.784" r="3.232"/>
<path fill="none" stroke="#FFFFFF" stroke-miterlimit="10" d="M57.453,6.008"/>
<polygon fill="#FF5700" points="56.249,7.794 62.617,22.999 80.638,24.169 84.451,13.512 "/>
<g>
	<g>
		<g>
			<circle fill="none" stroke="#FF5700" stroke-miterlimit="10" cx="70.719" cy="11.896" r="9.391"/>
		</g>
		<g>
			
				<ellipse transform="matrix(-0.987 0.1607 -0.1607 -0.987 142.3273 12.3004)" fill="none" stroke="#FF5700" stroke-miterlimit="10" cx="70.666" cy="11.904" rx="5.144" ry="9.391"/>
		</g>
		<g>
			<line fill="none" stroke="#FF5700" stroke-miterlimit="10" x1="69.158" y1="2.635" x2="72.175" y2="21.174"/>
		</g>
		<g>
			<line fill="none" stroke="#FF5700" stroke-miterlimit="10" x1="77.701" y1="5.614" x2="62.104" y2="8.153"/>
		</g>
		<g>
			<line fill="none" stroke="#FF5700" stroke-miterlimit="10" x1="63.725" y1="18.109" x2="79.322" y2="15.57"/>
		</g>
		<g>
			<line fill="none" stroke="#FF5700" stroke-miterlimit="10" x1="61.449" y1="13.405" x2="79.988" y2="10.387"/>
		</g>
	</g>
</g>
<g>
</g>
<g>
</g>
<g>
</g>
<g>
</g>
<g>
</g>
<g>
</g>
</svg>
