<?xml version="1.0" encoding="utf-8"?>
<!-- Generator: Adobe Illustrator 17.0.0, SVG Export Plug-In . SVG Version: 6.00 Build 0)  -->
<!DOCTYPE svg PUBLIC "-//W3C//DTD SVG 1.1//EN" "http://www.w3.org/Graphics/SVG/1.1/DTD/svg11.dtd">
<svg version="1.1" id="Livello_1" xmlns="http://www.w3.org/2000/svg" xmlns:xlink="http://www.w3.org/1999/xlink" x="0px" y="0px"
	 width="198.257px" height="40px" viewBox="0 0 198.257 40" enable-background="new 0 0 198.257 40" xml:space="preserve">
<g>
	<path fill="#FFFFFF" d="M97.942,33.411l-2.093,2.931v2.544h-1.225v-2.544l-2.094-2.931h1.497l1.204,1.686l1.204-1.686H97.942z"/>
	<path fill="#FFFFFF" d="M98.054,36.133c0-1.508,1.235-2.742,2.742-2.742c1.518,0,2.753,1.234,2.753,2.742
		c0,1.518-1.235,2.753-2.753,2.753C99.289,38.886,98.054,37.65,98.054,36.133z M99.279,36.133c0,0.848,0.68,1.528,1.518,1.528
		c0.848,0,1.528-0.681,1.528-1.528c0-0.838-0.68-1.518-1.528-1.518C99.959,34.615,99.279,35.295,99.279,36.133z"/>
	<path fill="#FFFFFF" d="M104.446,37.734c-0.241-0.523-0.251-1.025-0.251-1.078v-3.234h1.225v3.234c0,0.021,0.01,0.304,0.146,0.575
		c0.146,0.294,0.387,0.43,0.785,0.43c0.398,0,0.649-0.136,0.796-0.461c0.125-0.262,0.136-0.544,0.136-0.544v-3.234h1.225v3.234
		c0,0.053-0.011,0.555-0.262,1.078c-0.356,0.743-1.026,1.151-1.895,1.151C105.482,38.886,104.802,38.478,104.446,37.734z"/>
	<path fill="#FFFFFF" d="M109.038,38.886v-5.495h2.25c0.063,0,0.576,0.01,1.099,0.271c0.743,0.367,1.151,1.078,1.151,1.979
		c0,0.796-0.314,1.435-0.9,1.832l0.995,1.413h-1.497l-0.701-0.994h-1.172v0.994H109.038z M110.263,36.677h1.026
		c0.021,0,0.314-0.01,0.576-0.156c0.199-0.105,0.46-0.314,0.46-0.88c0-0.439-0.157-0.722-0.492-0.89
		c-0.262-0.136-0.544-0.136-0.544-0.136h-1.026V36.677z"/>
	<path fill="#FFFFFF" d="M124.043,33.391l-1.371,5.495h-1.413l-0.806-3.192l-0.795,3.192h-1.413l-1.371-5.495h1.256l0.827,3.286
		l0.816-3.286h1.371l0.816,3.286l0.827-3.286H124.043z"/>
	<path fill="#FFFFFF" d="M124.666,33.391h3.569v1.225h-2.345v1.13h1.905v1.215h-1.905v0.701h2.345v1.225h-3.569V33.391z"/>
	<path fill="#FFFFFF" d="M131.278,38.886h-2.25v-5.495h2.282c0.461,0,0.827,0.146,1.099,0.439c0.304,0.324,0.45,0.754,0.45,1.193
		c0,0.304-0.073,0.606-0.198,0.868c0.282,0.221,0.481,0.556,0.555,0.953c0.021,0.115,0.031,0.23,0.031,0.335
		c0,1.099-0.932,1.633-1.895,1.706H131.278z M130.253,35.525h0.837c0.335-0.042,0.523-0.115,0.544-0.418v-0.053
		c0-0.293-0.136-0.439-0.439-0.439h-0.941V35.525z M130.253,37.661h1.183c0.114-0.011,0.387-0.042,0.513-0.22
		c0.042-0.073,0.073-0.157,0.073-0.262c0-0.042,0-0.084-0.011-0.115c-0.021-0.095-0.062-0.178-0.115-0.22
		c-0.084-0.053-0.188-0.084-0.313-0.095h-1.329V37.661z"/>
	<path fill="#FFFFFF" d="M136.434,37.619l1.141-0.408c0.146,0.397,0.576,0.45,0.774,0.45h0.084c0.314-0.021,0.67-0.178,0.732-0.471
		c0.011-0.032,0.011-0.073,0.011-0.105c0-0.094-0.031-0.178-0.094-0.251c-0.157-0.188-0.461-0.313-0.827-0.324
		c-1.256-0.031-1.717-0.942-1.717-1.539c0-0.628,0.461-1.549,1.727-1.549c0.785,0,1.382,0.523,1.445,0.586l-0.691,0.974
		c-0.084-0.073-0.492-0.346-0.754-0.346c-0.114,0-0.481,0-0.502,0.324c0.021,0.221,0.188,0.325,0.523,0.335
		c0.732,0.021,1.371,0.304,1.748,0.785c0.23,0.304,0.355,0.66,0.355,1.026c0,0.104-0.01,0.22-0.031,0.324
		c-0.167,0.806-0.9,1.382-1.832,1.444c-0.062,0.011-0.125,0.011-0.188,0.011C137.448,38.886,136.716,38.404,136.434,37.619z"/>
	<path fill="#FFFFFF" d="M145.694,33.391v5.495h-1.225v-0.994h-2.209v0.994h-1.225v-5.495h1.225v3.286h2.209v-3.286H145.694z"/>
	<path fill="#FFFFFF" d="M146.392,36.133c0-1.508,1.235-2.742,2.743-2.742c1.518,0,2.753,1.234,2.753,2.742
		c0,1.518-1.235,2.753-2.753,2.753C147.627,38.886,146.392,37.65,146.392,36.133z M147.616,36.133c0,0.848,0.681,1.528,1.519,1.528
		c0.848,0,1.528-0.681,1.528-1.528c0-0.838-0.681-1.518-1.528-1.518C148.297,34.615,147.616,35.295,147.616,36.133z"/>
	<path fill="#FFFFFF" d="M153.82,38.886h-1.226v-5.495h2.24c0.053,0,0.565,0.01,1.089,0.271c0.743,0.367,1.151,1.068,1.151,1.968
		c0,0.9-0.408,1.602-1.151,1.969c-0.523,0.262-1.036,0.271-1.089,0.271h-1.015V38.886z M153.82,36.646h1.005
		c0.021,0,0.313-0.011,0.575-0.157c0.199-0.094,0.45-0.303,0.45-0.858c0-0.564-0.251-0.764-0.45-0.868
		c-0.262-0.137-0.555-0.146-0.575-0.146h-1.005V36.646z"/>
	<path fill="#FFFFFF" d="M161.519,38.886h-1.226v-5.495h2.24c0.053,0,0.565,0.01,1.089,0.271c0.743,0.367,1.151,1.068,1.151,1.968
		c0,0.9-0.408,1.602-1.151,1.969c-0.523,0.262-1.036,0.271-1.089,0.271h-1.015V38.886z M161.519,36.646h1.005
		c0.021,0,0.313-0.011,0.575-0.157c0.199-0.094,0.45-0.303,0.45-0.858c0-0.564-0.251-0.764-0.45-0.868
		c-0.262-0.137-0.555-0.146-0.575-0.146h-1.005V36.646z"/>
	<path fill="#FFFFFF" d="M165.366,38.886v-5.495h2.251c0.062,0,0.576,0.01,1.099,0.271c0.744,0.367,1.152,1.078,1.152,1.979
		c0,0.796-0.314,1.435-0.9,1.832l0.994,1.413h-1.497l-0.701-0.994h-1.172v0.994H165.366z M166.592,36.677h1.025
		c0.021,0,0.314-0.01,0.576-0.156c0.198-0.105,0.46-0.314,0.46-0.88c0-0.439-0.157-0.722-0.492-0.89
		c-0.262-0.136-0.544-0.136-0.544-0.136h-1.025V36.677z"/>
	<path fill="#FFFFFF" d="M170.555,36.133c0-1.508,1.235-2.742,2.743-2.742c1.518,0,2.753,1.234,2.753,2.742
		c0,1.518-1.235,2.753-2.753,2.753C171.79,38.886,170.555,37.65,170.555,36.133z M171.78,36.133c0,0.848,0.68,1.528,1.518,1.528
		c0.848,0,1.528-0.681,1.528-1.528c0-0.838-0.681-1.518-1.528-1.518C172.46,34.615,171.78,35.295,171.78,36.133z"/>
	<path fill="#FFFFFF" d="M177.994,38.886l-2.052-5.537h1.298l1.424,3.82l1.413-3.82h1.298l-2.052,5.537H177.994z"/>
	<path fill="#FFFFFF" d="M183.214,38.886h-1.226v-5.495h1.226V38.886z"/>
	<path fill="#FFFFFF" d="M184.05,38.886v-5.391h1.957c0.062,0,0.67,0.011,1.288,0.324c0.858,0.45,1.329,1.288,1.329,2.366
		c0,1.088-0.471,1.926-1.329,2.376c-0.618,0.313-1.226,0.324-1.288,0.324H184.05z M185.274,37.661h0.722
		c0.021,0,0.408-0.011,0.765-0.209c0.439-0.23,0.648-0.649,0.648-1.267c0-0.607-0.209-1.026-0.648-1.267
		c-0.356-0.188-0.743-0.21-0.765-0.21h-0.722V37.661z"/>
	<path fill="#FFFFFF" d="M189.332,33.391h3.57v1.225h-2.345v1.13h1.904v1.215h-1.904v0.701h2.345v1.225h-3.57V33.391z"/>
	<path fill="#FFFFFF" d="M193.757,38.886v-5.495h2.251c0.062,0,0.576,0.01,1.099,0.271c0.744,0.367,1.152,1.078,1.152,1.979
		c0,0.796-0.314,1.435-0.9,1.832l0.994,1.413h-1.497l-0.701-0.994h-1.172v0.994H193.757z M194.982,36.677h1.025
		c0.021,0,0.314-0.01,0.576-0.156c0.198-0.105,0.46-0.314,0.46-0.88c0-0.439-0.157-0.722-0.492-0.89
		c-0.262-0.136-0.544-0.136-0.544-0.136h-1.025V36.677z"/>
</g>
<g>
	<path fill="#FFFFFF" d="M56.983,25.364l2.818-1.008c0.362,0.982,1.421,1.111,1.913,1.111h0.207c0.776-0.052,1.654-0.439,1.81-1.163
		c0.026-0.077,0.026-0.181,0.026-0.259c0-0.232-0.078-0.439-0.232-0.62c-0.388-0.465-1.138-0.775-2.042-0.801
		c-3.102-0.078-4.239-2.327-4.239-3.801c0-1.551,1.137-3.825,4.265-3.825c1.939,0,3.412,1.292,3.567,1.447l-1.706,2.404
		c-0.207-0.181-1.215-0.853-1.861-0.853c-0.284,0-1.189,0-1.241,0.801c0.052,0.543,0.465,0.802,1.292,0.827
		c1.81,0.052,3.386,0.75,4.317,1.939c0.568,0.75,0.879,1.629,0.879,2.533c0,0.259-0.026,0.543-0.078,0.802
		c-0.414,1.99-2.223,3.412-4.523,3.567c-0.155,0.025-0.31,0.025-0.465,0.025C59.49,28.492,57.681,27.303,56.983,25.364z"/>
	<path fill="#FFFFFF" d="M79.861,14.921v13.571h-3.024v-2.456h-5.454v2.456h-3.024V14.921h3.024v8.117h5.454v-8.117H79.861z"/>
	<path fill="#FFFFFF" d="M81.595,21.694c0-3.723,3.05-6.773,6.772-6.773c3.748,0,6.798,3.05,6.798,6.773
		c0,3.748-3.05,6.798-6.798,6.798C84.646,28.492,81.595,25.442,81.595,21.694z M84.62,21.694c0,2.094,1.68,3.773,3.748,3.773
		c2.094,0,3.774-1.68,3.774-3.773c0-2.069-1.68-3.749-3.774-3.749C86.3,17.946,84.62,19.625,84.62,21.694z"/>
	<path fill="#FFFFFF" d="M99.951,28.492h-3.024V14.921h5.532c0.129,0,1.396,0.026,2.688,0.672c1.835,0.905,2.843,2.637,2.843,4.859
		c0,2.224-1.008,3.956-2.843,4.86c-1.293,0.646-2.559,0.673-2.688,0.673h-2.507V28.492z M99.951,22.961h2.481
		c0.052,0,0.775-0.026,1.421-0.388c0.491-0.233,1.112-0.75,1.112-2.121c0-1.396-0.621-1.887-1.112-2.145
		c-0.646-0.336-1.37-0.362-1.421-0.362h-2.481V22.961z"/>
	<path fill="#FFFFFF" d="M112.489,28.492h-3.024V14.921h3.024V28.492z"/>
	<path fill="#FFFFFF" d="M114.559,28.492V15.18h4.833c0.155,0,1.654,0.026,3.18,0.801c2.119,1.112,3.283,3.18,3.283,5.842
		c0,2.688-1.164,4.756-3.283,5.867c-1.525,0.776-3.024,0.802-3.18,0.802H114.559z M117.583,25.468h1.783
		c0.052,0,1.008-0.025,1.887-0.517c1.086-0.569,1.603-1.603,1.603-3.128c0-1.5-0.517-2.534-1.603-3.128
		c-0.879-0.465-1.835-0.517-1.887-0.517h-1.783V25.468z"/>
	<path fill="#FFFFFF" d="M127.613,14.921h8.814v3.024h-5.79v2.791h4.704v3h-4.704v1.731h5.79v3.024h-8.814V14.921z"/>
	<path fill="#FFFFFF" d="M138.55,28.492V14.921h5.558c0.155,0,1.422,0.026,2.714,0.672c1.836,0.905,2.844,2.663,2.844,4.885
		c0,1.965-0.775,3.542-2.224,4.524l2.456,3.489h-3.696l-1.731-2.456h-2.896v2.456H138.55z M141.574,23.038h2.533
		c0.052,0,0.775-0.025,1.422-0.388c0.491-0.259,1.137-0.775,1.137-2.172c0-1.085-0.388-1.783-1.215-2.197
		c-0.646-0.336-1.344-0.336-1.344-0.336h-2.533V23.038z"/>
	<path fill="#FFFFFF" d="M152.64,28.492c-0.827,0-1.499-0.672-1.499-1.499c0-0.854,0.672-1.525,1.499-1.525
		c0.854,0,1.525,0.672,1.525,1.525C154.165,27.82,153.493,28.492,152.64,28.492z"/>
	<path fill="#FFFFFF" d="M155.535,21.694c0-3.723,3.05-6.773,6.772-6.773c1.835,0,3.566,0.724,4.833,2.016l-2.146,2.12
		c-0.697-0.724-1.654-1.111-2.688-1.111c-2.068,0-3.748,1.68-3.748,3.749c0,2.094,1.68,3.773,3.748,3.773
		c1.008,0,1.938-0.388,2.662-1.086l2.119,2.146c-1.292,1.267-2.973,1.965-4.781,1.965C158.585,28.492,155.535,25.442,155.535,21.694
		z"/>
	<path fill="#FFFFFF" d="M168.565,21.694c0-3.723,3.05-6.773,6.771-6.773c3.748,0,6.799,3.05,6.799,6.773
		c0,3.748-3.051,6.798-6.799,6.798C171.615,28.492,168.565,25.442,168.565,21.694z M171.589,21.694c0,2.094,1.681,3.773,3.748,3.773
		c2.094,0,3.774-1.68,3.774-3.773c0-2.069-1.681-3.749-3.774-3.749C173.27,17.946,171.589,19.625,171.589,21.694z"/>
	<path fill="#FFFFFF" d="M198.009,28.492h-3.024v-7.807l-4.239,6.049l-4.238-6.049v7.807h-3.024V14.921h2.637l4.626,6.566
		l4.627-6.566h2.637V28.492z"/>
</g>
<rect x="56.312" y="30.31" fill="#FF5700" width="141.945" height="1.235"/>
<path fill="#FFFFFF" d="M23.049,25.345l21.32,0.896l3.922-10.63c0,0,0.282-2.084,1.906-1.522c0.968,0.335,0.762,1.522,0.762,1.522
	l-3.236,12.693c0,0-0.569,1.849-3.058,1.991l-20.239,0.643c0,0-3.97,0.287-5.749-3.767l-7.79-19.104c0,0-1.496-1.549-3.06-1.762
	C6.263,6.092,2.171,5.378,2.171,5.378S0,5.118,0,2.558c0,0,0.142-2.347,2.703-2.347l9.175,1.067c0,0,1.778,0.498,2.703,2.845
	C15.505,6.47,23.049,25.345,23.049,25.345z"/>
<circle fill="#FFFFFF" cx="24.99" cy="35.995" r="3.232"/>
<circle fill="#FFFFFF" cx="42.442" cy="35.995" r="3.232"/>
<path fill="none" stroke="#FFFFFF" stroke-miterlimit="10" d="M19.257,6.219"/>
<polygon fill="#FF5700" points="18.053,8.005 24.421,23.21 42.442,24.38 46.255,13.723 "/>
<g>
	<g>
		<g>
			<circle fill="none" stroke="#FF5700" stroke-miterlimit="10" cx="32.523" cy="12.107" r="9.391"/>
		</g>
		<g>
			
				<ellipse transform="matrix(-0.987 0.1607 -0.1607 -0.987 66.4653 18.8563)" fill="none" stroke="#FF5700" stroke-miterlimit="10" cx="32.47" cy="12.115" rx="5.144" ry="9.391"/>
		</g>
		<g>
			<line fill="none" stroke="#FF5700" stroke-miterlimit="10" x1="30.961" y1="2.846" x2="33.979" y2="21.385"/>
		</g>
		<g>
			<line fill="none" stroke="#FF5700" stroke-miterlimit="10" x1="39.505" y1="5.825" x2="23.908" y2="8.364"/>
		</g>
		<g>
			<line fill="none" stroke="#FF5700" stroke-miterlimit="10" x1="25.529" y1="18.32" x2="41.126" y2="15.781"/>
		</g>
		<g>
			<line fill="none" stroke="#FF5700" stroke-miterlimit="10" x1="23.253" y1="13.616" x2="41.792" y2="10.598"/>
		</g>
	</g>
</g>
<g>
</g>
<g>
</g>
<g>
</g>
<g>
</g>
<g>
</g>
<g>
</g>
</svg>
