<?xml version="1.0" encoding="utf-8"?>
<!-- Generator: Adobe Illustrator 17.0.0, SVG Export Plug-In . SVG Version: 6.00 Build 0)  -->
<!DOCTYPE svg PUBLIC "-//W3C//DTD SVG 1.1//EN" "http://www.w3.org/Graphics/SVG/1.1/DTD/svg11.dtd">
<svg version="1.1" id="Livello_1" xmlns="http://www.w3.org/2000/svg" xmlns:xlink="http://www.w3.org/1999/xlink" x="0px" y="0px"
	 width="150px" height="150px" viewBox="0 0 150 150" enable-background="new 0 0 150 150" xml:space="preserve">
<g>
	<circle fill="#86ADCE" cx="75" cy="75" r="64.808"/>
	<circle fill="none" stroke="#86ADCE" stroke-width="3" stroke-miterlimit="10" cx="75" cy="75" r="72.5"/>
	<path fill="#549EC6" d="M105.368,52.853l33.276,33.276c0,0,0.054,37.327-46.649,51.51L55.058,97.613"/>
	<polygon fill="#549EC6" points="105.368,52.853 94.878,52.853 75.001,48.589 49,54.902 52.367,83.662 57.418,95.246 
		66.256,102.885 75.001,107.725 96.851,91.52 	"/>
	<g>
		<g id="_x3C_Group_x3E__4_">
			<g>
				<path fill="#FFFFFF" d="M104.369,51.854c-19.999,0-28.413-7.588-28.442-7.659c-0.148-0.372-0.502-0.621-0.918-0.631
					c0,0-0.01,0-0.017,0c-0.391,0-0.76,0.25-0.916,0.614c-0.03,0.078-8.515,7.676-28.442,7.676c-0.554,0-1,0.454-1,0.998
					l5.033,34.015c2.138,14.239,23.919,24.56,24.934,25.008c0.129,0.059,0.262,0.084,0.398,0.084c0.134,0,0.275-0.025,0.403-0.084
					c1.019-0.448,23.243-11.395,24.933-25.008l5.033-34.015C105.368,52.308,104.923,51.854,104.369,51.854z M94.837,84.888
					c-1.688,10.721-18.725,19.232-19.524,19.581c-0.097,0.048-0.208,0.067-0.314,0.067c-0.106,0-0.208-0.018-0.314-0.067
					c-0.787-0.349-17.535-8.705-19.519-19.581l-5.033-26.627c0-0.433,0.356-0.786,0.787-0.786c15.599,0,23.335-5.939,23.355-6.003
					c0.121-0.293,0.411-0.482,0.722-0.482c0.003,0,0.012,0,0.012,0c0.319,0.005,0.606,0.198,0.718,0.494
					c0.022,0.053,7.703,5.992,23.362,5.992c0.431,0,0.777,0.353,0.777,0.786L94.837,84.888z"/>
			</g>
		</g>
		<g opacity="0.25">
			<path fill="#FFFFFF" d="M74.998,105.825V50.989l25.272,4.952l-6.075,36.261C94.196,92.202,83.894,106.45,74.998,105.825z"/>
		</g>
	</g>
</g>
<g>
</g>
<g>
</g>
<g>
</g>
<g>
</g>
<g>
</g>
<g>
</g>
<g>
</g>
<g>
</g>
<g>
</g>
<g>
</g>
<g>
</g>
<g>
</g>
<g>
</g>
<g>
</g>
<g>
</g>
</svg>
