<?xml version="1.0" encoding="utf-8"?>
<!-- Generator: Adobe Illustrator 17.0.0, SVG Export Plug-In . SVG Version: 6.00 Build 0)  -->
<!DOCTYPE svg PUBLIC "-//W3C//DTD SVG 1.1//EN" "http://www.w3.org/Graphics/SVG/1.1/DTD/svg11.dtd">
<svg version="1.1" id="Livello_1" xmlns="http://www.w3.org/2000/svg" xmlns:xlink="http://www.w3.org/1999/xlink" x="0px" y="0px"
	 width="150px" height="150px" viewBox="0 0 150 150" enable-background="new 0 0 150 150" xml:space="preserve">
<circle fill="#A1C93D" cx="75" cy="75" r="65.141"/>
<path fill="#769B02" d="M122.391,70.203l16.961,15.933c0,0-6.282,48.84-60.602,54.005l-45.64-45.64"/>
<circle fill="none" stroke="#769B02" stroke-width="3" stroke-miterlimit="10" cx="75" cy="75" r="72.625"/>
<circle fill="#FFFFFF" cx="99.683" cy="61.955" r="8.869"/>
<path fill="#FFFFFF" d="M37.684,87.318l44.505-15.095c0,0,7.719-3.453,14.137,0.195c0,0,2.816,2.482,16.559-2.399
	c0,0,8.448-2.969,9.506,0.183c0,0,2.232,3.757-7.188,6.082c0,0-9.095,3.497-17.386,3.513c-1.052,0.002-21.873,5.261-34.121,9.209
	l-22.879,7.569c0,0-5.336,1.709-7.245-2.534C33.571,94.041,32.085,89.217,37.684,87.318z"/>
<path fill="#FFFFFF" d="M85.933,69.101c0,0-10.333-10.857-31.541-8.601c0,0-10.66,2.594-20.013-1.289
	c-10.868-4.512-4.116,3.857-4.116,3.857l-2.189,6.017c0,0,1.76,0.399,2.391,2.539c0.631,2.14-0.179-1.157-1.435,1.006
	c-1.256,2.163-1.586,0.486-0.522,3.76c1.064,3.274,3.721,2.055,0.666,4.572s-1.288,5.143-1.288,5.143L85.933,69.101z"/>
<g>
</g>
<g>
</g>
<g>
</g>
<g>
</g>
<g>
</g>
<g>
</g>
<g>
</g>
<g>
</g>
<g>
</g>
<g>
</g>
<g>
</g>
<g>
</g>
<g>
</g>
<g>
</g>
<g>
</g>
</svg>
